<mxfile host="app.diagrams.net" modified="2023-12-10T11:09:11.161Z" agent="Mozilla/5.0 (Windows NT 10.0; Win64; x64) AppleWebKit/537.36 (KHTML, like Gecko) Chrome/120.0.0.0 Safari/537.36 Edg/120.0.0.0" etag="S6oAB-0adMhL-qrviJkg" version="22.1.7" type="device">
  <diagram id="C5RBs43oDa-KdzZeNtuy" name="Page-1">
    <mxGraphModel dx="769" dy="814" grid="1" gridSize="10" guides="1" tooltips="1" connect="1" arrows="1" fold="1" page="1" pageScale="1" pageWidth="827" pageHeight="1169" background="#FDFFFC" math="0" shadow="0">
      <root>
        <mxCell id="WIyWlLk6GJQsqaUBKTNV-0" />
        <mxCell id="WIyWlLk6GJQsqaUBKTNV-1" parent="WIyWlLk6GJQsqaUBKTNV-0" />
        <mxCell id="WIyWlLk6GJQsqaUBKTNV-2" value="" style="rounded=0;html=1;jettySize=auto;orthogonalLoop=1;fontSize=11;endArrow=block;endFill=0;endSize=8;strokeWidth=1;shadow=0;labelBackgroundColor=none;edgeStyle=orthogonalEdgeStyle;entryX=0.5;entryY=0;entryDx=0;entryDy=0;" parent="WIyWlLk6GJQsqaUBKTNV-1" source="WIyWlLk6GJQsqaUBKTNV-3" target="PGfaWY0N2Hwl_Ehus2mz-2" edge="1">
          <mxGeometry relative="1" as="geometry">
            <mxPoint x="430" y="160.0000000000001" as="targetPoint" />
          </mxGeometry>
        </mxCell>
        <mxCell id="WIyWlLk6GJQsqaUBKTNV-3" value="&lt;p style=&quot;margin-top: 0pt; margin-bottom: 0pt; margin-left: 0in; direction: ltr; unicode-bidi: embed; word-break: normal;&quot;&gt;&lt;font style=&quot;font-size: 18px;&quot;&gt;&lt;b style=&quot;&quot;&gt;Calculate&lt;br&gt;K values&amp;nbsp;&lt;/b&gt;&lt;/font&gt;&lt;/p&gt;" style="rounded=1;whiteSpace=wrap;html=1;fontSize=12;glass=0;strokeWidth=1;shadow=0;" parent="WIyWlLk6GJQsqaUBKTNV-1" vertex="1">
          <mxGeometry x="370" y="40" width="120" height="60" as="geometry" />
        </mxCell>
        <mxCell id="WIyWlLk6GJQsqaUBKTNV-4" value="&lt;font style=&quot;font-size: 12px;&quot;&gt;math.sqrt&lt;/font&gt;" style="rounded=0;html=1;jettySize=auto;orthogonalLoop=1;fontSize=11;endArrow=block;endFill=0;endSize=8;strokeWidth=1;shadow=0;labelBackgroundColor=none;edgeStyle=orthogonalEdgeStyle;exitX=0.5;exitY=1;exitDx=0;exitDy=0;entryX=0.5;entryY=0;entryDx=0;entryDy=0;" parent="WIyWlLk6GJQsqaUBKTNV-1" source="PGfaWY0N2Hwl_Ehus2mz-2" target="PGfaWY0N2Hwl_Ehus2mz-4" edge="1">
          <mxGeometry x="0.2" y="30" relative="1" as="geometry">
            <mxPoint as="offset" />
            <mxPoint x="430" y="200.0000000000001" as="sourcePoint" />
            <mxPoint x="430" y="210.0000000000001" as="targetPoint" />
          </mxGeometry>
        </mxCell>
        <mxCell id="PGfaWY0N2Hwl_Ehus2mz-7" value="" style="edgeStyle=orthogonalEdgeStyle;rounded=0;orthogonalLoop=1;jettySize=auto;html=1;" edge="1" parent="WIyWlLk6GJQsqaUBKTNV-1" source="WIyWlLk6GJQsqaUBKTNV-11" target="PGfaWY0N2Hwl_Ehus2mz-6">
          <mxGeometry relative="1" as="geometry" />
        </mxCell>
        <mxCell id="WIyWlLk6GJQsqaUBKTNV-11" value="&lt;b style=&quot;border-color: var(--border-color); font-size: 18px;&quot;&gt;auxR&lt;/b&gt;" style="rounded=1;whiteSpace=wrap;html=1;fontSize=12;glass=0;strokeWidth=1;shadow=0;fillColor=#FFCC99;" parent="WIyWlLk6GJQsqaUBKTNV-1" vertex="1">
          <mxGeometry x="370" y="300" width="120" height="40" as="geometry" />
        </mxCell>
        <mxCell id="PGfaWY0N2Hwl_Ehus2mz-0" value="&lt;font style=&quot;font-size: 18px;&quot;&gt;&lt;b&gt;return&lt;/b&gt;&lt;/font&gt;" style="rounded=1;whiteSpace=wrap;html=1;fontSize=12;glass=0;strokeWidth=1;shadow=0;fillColor=#E1D5E7;" vertex="1" parent="WIyWlLk6GJQsqaUBKTNV-1">
          <mxGeometry x="200" y="140" width="120" height="40" as="geometry" />
        </mxCell>
        <mxCell id="PGfaWY0N2Hwl_Ehus2mz-1" value="" style="edgeStyle=orthogonalEdgeStyle;rounded=0;html=1;jettySize=auto;orthogonalLoop=1;fontSize=11;endArrow=block;endFill=0;endSize=8;strokeWidth=1;shadow=0;labelBackgroundColor=none;exitX=1;exitY=0.5;exitDx=0;exitDy=0;entryX=0;entryY=0.5;entryDx=0;entryDy=0;" edge="1" parent="WIyWlLk6GJQsqaUBKTNV-1" source="PGfaWY0N2Hwl_Ehus2mz-0" target="PGfaWY0N2Hwl_Ehus2mz-2">
          <mxGeometry y="10" relative="1" as="geometry">
            <mxPoint as="offset" />
            <mxPoint x="340" y="160" as="sourcePoint" />
            <mxPoint x="380" y="159.58" as="targetPoint" />
            <Array as="points" />
          </mxGeometry>
        </mxCell>
        <mxCell id="PGfaWY0N2Hwl_Ehus2mz-2" value="&lt;p style=&quot;margin-top: 0pt; margin-bottom: 0pt; margin-left: 0in; direction: ltr; unicode-bidi: embed; word-break: normal;&quot;&gt;&lt;font style=&quot;font-size: 18px;&quot;&gt;&lt;b&gt;mu&lt;/b&gt;&lt;/font&gt;&lt;/p&gt;" style="rounded=1;whiteSpace=wrap;html=1;fontSize=12;glass=0;strokeWidth=1;shadow=0;fillColor=#FFCC99;" vertex="1" parent="WIyWlLk6GJQsqaUBKTNV-1">
          <mxGeometry x="370" y="140" width="120" height="40" as="geometry" />
        </mxCell>
        <mxCell id="PGfaWY0N2Hwl_Ehus2mz-4" value="&lt;p style=&quot;margin-top: 0pt; margin-bottom: 0pt; margin-left: 0in; direction: ltr; unicode-bidi: embed; word-break: normal;&quot;&gt;&lt;font style=&quot;font-size: 18px;&quot;&gt;&lt;b style=&quot;&quot;&gt;sigma&lt;/b&gt;&lt;/font&gt;&lt;/p&gt;" style="rounded=1;whiteSpace=wrap;html=1;fontSize=12;glass=0;strokeWidth=1;shadow=0;fillColor=#FFCC99;" vertex="1" parent="WIyWlLk6GJQsqaUBKTNV-1">
          <mxGeometry x="370" y="220" width="120" height="40" as="geometry" />
        </mxCell>
        <mxCell id="PGfaWY0N2Hwl_Ehus2mz-5" value="&lt;font style=&quot;font-size: 12px;&quot;&gt;math.sqrt&lt;/font&gt;" style="rounded=0;html=1;jettySize=auto;orthogonalLoop=1;fontSize=11;endArrow=block;endFill=0;endSize=8;strokeWidth=1;shadow=0;labelBackgroundColor=none;edgeStyle=orthogonalEdgeStyle;exitX=0.5;exitY=1;exitDx=0;exitDy=0;entryX=0.5;entryY=0;entryDx=0;entryDy=0;" edge="1" parent="WIyWlLk6GJQsqaUBKTNV-1" source="PGfaWY0N2Hwl_Ehus2mz-4" target="WIyWlLk6GJQsqaUBKTNV-11">
          <mxGeometry x="0.2" y="30" relative="1" as="geometry">
            <mxPoint as="offset" />
            <mxPoint x="429.58000000000004" y="270" as="sourcePoint" />
            <mxPoint x="429.58000000000004" y="320" as="targetPoint" />
          </mxGeometry>
        </mxCell>
        <mxCell id="PGfaWY0N2Hwl_Ehus2mz-13" style="edgeStyle=orthogonalEdgeStyle;rounded=0;orthogonalLoop=1;jettySize=auto;html=1;entryX=0.5;entryY=0;entryDx=0;entryDy=0;" edge="1" parent="WIyWlLk6GJQsqaUBKTNV-1" source="PGfaWY0N2Hwl_Ehus2mz-6" target="PGfaWY0N2Hwl_Ehus2mz-8">
          <mxGeometry relative="1" as="geometry">
            <Array as="points">
              <mxPoint x="430" y="470" />
              <mxPoint x="353" y="470" />
            </Array>
          </mxGeometry>
        </mxCell>
        <mxCell id="PGfaWY0N2Hwl_Ehus2mz-20" style="edgeStyle=orthogonalEdgeStyle;rounded=0;orthogonalLoop=1;jettySize=auto;html=1;" edge="1" parent="WIyWlLk6GJQsqaUBKTNV-1" source="PGfaWY0N2Hwl_Ehus2mz-6" target="PGfaWY0N2Hwl_Ehus2mz-14">
          <mxGeometry relative="1" as="geometry">
            <Array as="points">
              <mxPoint x="430" y="470" />
              <mxPoint x="200" y="470" />
            </Array>
          </mxGeometry>
        </mxCell>
        <mxCell id="PGfaWY0N2Hwl_Ehus2mz-21" style="edgeStyle=orthogonalEdgeStyle;rounded=0;orthogonalLoop=1;jettySize=auto;html=1;entryX=0.5;entryY=0;entryDx=0;entryDy=0;" edge="1" parent="WIyWlLk6GJQsqaUBKTNV-1" source="PGfaWY0N2Hwl_Ehus2mz-6" target="PGfaWY0N2Hwl_Ehus2mz-16">
          <mxGeometry relative="1" as="geometry">
            <Array as="points">
              <mxPoint x="430" y="470" />
              <mxPoint x="660" y="470" />
            </Array>
          </mxGeometry>
        </mxCell>
        <mxCell id="PGfaWY0N2Hwl_Ehus2mz-22" style="edgeStyle=orthogonalEdgeStyle;rounded=0;orthogonalLoop=1;jettySize=auto;html=1;" edge="1" parent="WIyWlLk6GJQsqaUBKTNV-1" source="PGfaWY0N2Hwl_Ehus2mz-23" target="PGfaWY0N2Hwl_Ehus2mz-9">
          <mxGeometry relative="1" as="geometry">
            <Array as="points">
              <mxPoint x="430" y="470" />
              <mxPoint x="510" y="470" />
            </Array>
          </mxGeometry>
        </mxCell>
        <mxCell id="PGfaWY0N2Hwl_Ehus2mz-6" value="&lt;font style=&quot;font-size: 18px;&quot;&gt;&lt;b&gt;lambda&lt;/b&gt;&lt;/font&gt;" style="rounded=1;whiteSpace=wrap;html=1;fontSize=12;glass=0;strokeWidth=1;shadow=0;fillColor=#FFCC99;" vertex="1" parent="WIyWlLk6GJQsqaUBKTNV-1">
          <mxGeometry x="370" y="370" width="120" height="40" as="geometry" />
        </mxCell>
        <mxCell id="PGfaWY0N2Hwl_Ehus2mz-25" style="edgeStyle=orthogonalEdgeStyle;rounded=0;orthogonalLoop=1;jettySize=auto;html=1;" edge="1" parent="WIyWlLk6GJQsqaUBKTNV-1" source="PGfaWY0N2Hwl_Ehus2mz-8" target="PGfaWY0N2Hwl_Ehus2mz-23">
          <mxGeometry relative="1" as="geometry">
            <Array as="points">
              <mxPoint x="353" y="590" />
              <mxPoint x="430" y="590" />
            </Array>
          </mxGeometry>
        </mxCell>
        <mxCell id="PGfaWY0N2Hwl_Ehus2mz-8" value="&lt;font style=&quot;font-size: 18px;&quot;&gt;&lt;b&gt;NQ&lt;/b&gt;&lt;/font&gt;" style="rounded=1;whiteSpace=wrap;html=1;fontSize=12;glass=0;strokeWidth=1;shadow=0;fillColor=#FFCC99;" vertex="1" parent="WIyWlLk6GJQsqaUBKTNV-1">
          <mxGeometry x="293" y="510" width="120" height="40" as="geometry" />
        </mxCell>
        <mxCell id="PGfaWY0N2Hwl_Ehus2mz-26" value="" style="edgeStyle=orthogonalEdgeStyle;rounded=0;orthogonalLoop=1;jettySize=auto;html=1;" edge="1" parent="WIyWlLk6GJQsqaUBKTNV-1" source="PGfaWY0N2Hwl_Ehus2mz-9" target="PGfaWY0N2Hwl_Ehus2mz-23">
          <mxGeometry relative="1" as="geometry">
            <Array as="points">
              <mxPoint x="510" y="590" />
              <mxPoint x="430" y="590" />
            </Array>
          </mxGeometry>
        </mxCell>
        <mxCell id="PGfaWY0N2Hwl_Ehus2mz-9" value="&lt;font style=&quot;font-size: 18px;&quot;&gt;&lt;b&gt;maxQ&lt;/b&gt;&lt;/font&gt;" style="rounded=1;whiteSpace=wrap;html=1;fontSize=12;glass=0;strokeWidth=1;shadow=0;fillColor=#FFCC99;" vertex="1" parent="WIyWlLk6GJQsqaUBKTNV-1">
          <mxGeometry x="450" y="510" width="120" height="40" as="geometry" />
        </mxCell>
        <mxCell id="PGfaWY0N2Hwl_Ehus2mz-24" style="edgeStyle=orthogonalEdgeStyle;rounded=0;orthogonalLoop=1;jettySize=auto;html=1;" edge="1" parent="WIyWlLk6GJQsqaUBKTNV-1" source="PGfaWY0N2Hwl_Ehus2mz-14" target="PGfaWY0N2Hwl_Ehus2mz-23">
          <mxGeometry relative="1" as="geometry">
            <Array as="points">
              <mxPoint x="200" y="590" />
              <mxPoint x="430" y="590" />
            </Array>
          </mxGeometry>
        </mxCell>
        <mxCell id="PGfaWY0N2Hwl_Ehus2mz-14" value="&lt;font style=&quot;font-size: 18px;&quot;&gt;&lt;b&gt;Q&lt;/b&gt;&lt;/font&gt;" style="rounded=1;whiteSpace=wrap;html=1;fontSize=12;glass=0;strokeWidth=1;shadow=0;fillColor=#FFCC99;" vertex="1" parent="WIyWlLk6GJQsqaUBKTNV-1">
          <mxGeometry x="140" y="510" width="120" height="40" as="geometry" />
        </mxCell>
        <mxCell id="PGfaWY0N2Hwl_Ehus2mz-27" style="edgeStyle=orthogonalEdgeStyle;rounded=0;orthogonalLoop=1;jettySize=auto;html=1;entryX=0.5;entryY=0;entryDx=0;entryDy=0;" edge="1" parent="WIyWlLk6GJQsqaUBKTNV-1" source="PGfaWY0N2Hwl_Ehus2mz-16" target="PGfaWY0N2Hwl_Ehus2mz-23">
          <mxGeometry relative="1" as="geometry">
            <Array as="points">
              <mxPoint x="660" y="590" />
              <mxPoint x="430" y="590" />
            </Array>
          </mxGeometry>
        </mxCell>
        <mxCell id="PGfaWY0N2Hwl_Ehus2mz-16" value="&lt;font style=&quot;font-size: 18px;&quot;&gt;&lt;b&gt;maxQno&lt;/b&gt;&lt;/font&gt;" style="rounded=1;whiteSpace=wrap;html=1;fontSize=12;glass=0;strokeWidth=1;shadow=0;fillColor=#FFCC99;" vertex="1" parent="WIyWlLk6GJQsqaUBKTNV-1">
          <mxGeometry x="600" y="510" width="120" height="40" as="geometry" />
        </mxCell>
        <mxCell id="PGfaWY0N2Hwl_Ehus2mz-32" style="edgeStyle=orthogonalEdgeStyle;rounded=0;orthogonalLoop=1;jettySize=auto;html=1;" edge="1" parent="WIyWlLk6GJQsqaUBKTNV-1" source="PGfaWY0N2Hwl_Ehus2mz-23" target="PGfaWY0N2Hwl_Ehus2mz-30">
          <mxGeometry relative="1" as="geometry" />
        </mxCell>
        <mxCell id="PGfaWY0N2Hwl_Ehus2mz-34" style="edgeStyle=orthogonalEdgeStyle;rounded=0;orthogonalLoop=1;jettySize=auto;html=1;" edge="1" parent="WIyWlLk6GJQsqaUBKTNV-1" source="PGfaWY0N2Hwl_Ehus2mz-23" target="PGfaWY0N2Hwl_Ehus2mz-33">
          <mxGeometry relative="1" as="geometry" />
        </mxCell>
        <mxCell id="PGfaWY0N2Hwl_Ehus2mz-23" value="&lt;font style=&quot;font-size: 24px;&quot;&gt;&lt;b style=&quot;&quot;&gt;QFEL&lt;/b&gt;&lt;/font&gt;" style="rounded=1;whiteSpace=wrap;html=1;fontSize=12;glass=0;strokeWidth=1;shadow=0;fillColor=#CCFFFF;" vertex="1" parent="WIyWlLk6GJQsqaUBKTNV-1">
          <mxGeometry x="370" y="700" width="120" height="40" as="geometry" />
        </mxCell>
        <mxCell id="PGfaWY0N2Hwl_Ehus2mz-31" style="edgeStyle=orthogonalEdgeStyle;rounded=0;orthogonalLoop=1;jettySize=auto;html=1;" edge="1" parent="WIyWlLk6GJQsqaUBKTNV-1" source="PGfaWY0N2Hwl_Ehus2mz-28" target="PGfaWY0N2Hwl_Ehus2mz-30">
          <mxGeometry relative="1" as="geometry" />
        </mxCell>
        <mxCell id="PGfaWY0N2Hwl_Ehus2mz-28" value="&lt;font style=&quot;font-size: 18px;&quot;&gt;&lt;b&gt;Hurst&lt;/b&gt;&lt;/font&gt;" style="rounded=1;whiteSpace=wrap;html=1;fontSize=12;glass=0;strokeWidth=1;shadow=0;fillColor=#E1D5E7;" vertex="1" parent="WIyWlLk6GJQsqaUBKTNV-1">
          <mxGeometry x="150" y="700" width="120" height="40" as="geometry" />
        </mxCell>
        <mxCell id="PGfaWY0N2Hwl_Ehus2mz-36" style="edgeStyle=orthogonalEdgeStyle;rounded=0;orthogonalLoop=1;jettySize=auto;html=1;" edge="1" parent="WIyWlLk6GJQsqaUBKTNV-1" source="PGfaWY0N2Hwl_Ehus2mz-29" target="PGfaWY0N2Hwl_Ehus2mz-33">
          <mxGeometry relative="1" as="geometry" />
        </mxCell>
        <mxCell id="PGfaWY0N2Hwl_Ehus2mz-29" value="&lt;font style=&quot;font-size: 18px;&quot;&gt;&lt;b&gt;Price&lt;/b&gt;&lt;/font&gt;" style="rounded=1;whiteSpace=wrap;html=1;fontSize=12;glass=0;strokeWidth=1;shadow=0;fillColor=#E1D5E7;" vertex="1" parent="WIyWlLk6GJQsqaUBKTNV-1">
          <mxGeometry x="600" y="700" width="120" height="40" as="geometry" />
        </mxCell>
        <mxCell id="PGfaWY0N2Hwl_Ehus2mz-30" value="&lt;font style=&quot;font-size: 24px;&quot;&gt;&lt;b&gt;Quantum Hurst Level&lt;/b&gt;&lt;/font&gt;" style="rounded=1;whiteSpace=wrap;html=1;fontSize=12;glass=0;strokeWidth=1;shadow=0;fillColor=#CCFFFF;" vertex="1" parent="WIyWlLk6GJQsqaUBKTNV-1">
          <mxGeometry x="220" y="850" width="150" height="70" as="geometry" />
        </mxCell>
        <mxCell id="PGfaWY0N2Hwl_Ehus2mz-33" value="&lt;font style=&quot;font-size: 24px;&quot;&gt;&lt;b&gt;Quantum Price Level&lt;/b&gt;&lt;/font&gt;" style="rounded=1;whiteSpace=wrap;html=1;fontSize=12;glass=0;strokeWidth=1;shadow=0;fillColor=#CCFFFF;" vertex="1" parent="WIyWlLk6GJQsqaUBKTNV-1">
          <mxGeometry x="490" y="850" width="150" height="70" as="geometry" />
        </mxCell>
      </root>
    </mxGraphModel>
  </diagram>
</mxfile>
